<svg xmlns="http://www.w3.org/2000/svg" xmlns:xlink="http://www.w3.org/1999/xlink" version="1.1" x="0px" y="0px" viewBox="0 0 96 96" enable-background="new 0 0 96 96" xml:space="preserve"><path d="M72,53c0,6.56-1.17,12.71-3.22,18H27.22C25.17,65.71,24,59.56,24,53c0-6.56,1.17-12.71,3.22-18h41.56  C70.83,40.29,72,46.44,72,53z"/><path d="M22,53c0,3.23,0.27,6.37,0.8,9.36C21.77,61.51,20.44,61,19,61c-1.55,0-2.96,0.59-4.02,1.56C13.06,59.63,12,56.39,12,53  c0-7.53,5.21-14.26,13.36-18.66C23.22,39.85,22,46.22,22,53z"/><path d="M84,53c0,3.39-1.06,6.63-2.98,9.56C79.96,61.59,78.55,61,77,61c-1.44,0-2.77,0.51-3.8,1.36C73.73,59.37,74,56.23,74,53  c0-6.78-1.22-13.15-3.36-18.66C78.79,38.74,84,45.47,84,53z"/><circle cx="19" cy="67" r="4"/><circle cx="77" cy="67" r="4"/><path d="M67.62,73C63.58,79.6,56.3,84,48,84s-15.58-4.4-19.62-11H67.62z"/><path d="M49,22.03v-4.21c1.16-0.42,2-1.52,2-2.82c0-1.66-1.34-3-3-3s-3,1.34-3,3c0,1.3,0.84,2.4,2,2.82v4.21  C39.12,22.37,32.26,26.67,28.38,33h39.24C63.74,26.67,56.88,22.37,49,22.03z M42,30c-1.1,0-2-0.9-2-2s0.9-2,2-2s2,0.9,2,2  S43.1,30,42,30z M54,30c-1.1,0-2-0.9-2-2s0.9-2,2-2s2,0.9,2,2S55.1,30,54,30z"/></svg>
